<?xml version="1.0" encoding="UTF-8"?>
<svg xmlns="http://www.w3.org/2000/svg" viewBox="0 0 45.63 79.17">
  <g fill="none" stroke="rgba(255,245,220,0.06)" stroke-width=".5" stroke-miterlimit="10">
    <path d="m44.95,59.62v25.17s-.02.08-.06.1l-21.79,12.58c-.1.06-.21-.05-.15-.15l21.79-37.75c.06-.1.21-.06.21.06Z"/>
    <path d="m.67,84.78v-25.17c0-.11.15-.16.21-.06l21.79,37.75c.06.1-.05.21-.15.15L.73,84.88s-.06-.06-.06-.1Z"/>
    <path d="m22.14,20.03v25.17s-.02.08-.06.1L.29,57.88c-.1.06-.21-.05-.15-.15L21.93,19.97c.06-.1.21-.06.21.06Z"/>
    <path d="m23.49,45.2v-25.17c0-.11.15-.16.21-.06l21.79,37.75c.06.1-.05.21-.15.15l-21.79-12.58s-.06-.06-.06-.1Z"/>
    <path d="m.97,59.04l21.79-12.58s.08-.02.11,0l21.79,12.58c.1.06.06.21-.06.21H1.02c-.11,0-.16-.15-.06-.21Z"/>
    <path d="m44.95-19.56V5.61s-.02.08-.06.1l-21.79,12.58c-.1.06-.21-.05-.15-.15l21.79-37.75c.06-.1.21-.06.21.06Z"/>
    <path d="m23.78,19.46l21.79-12.58s.08-.02.11,0l21.79,12.58c.1.06.06.21-.06.21H23.84c-.11,0-.16-.15-.06-.21Z"/>
    <path d="m.67,5.61v-25.17c0-.11.15-.16.21-.06L22.67,18.14c.06.1-.05.21-.15.15L.73,5.71s-.06-.06-.06-.1Z"/>
    <path d="m-21.85,19.46L-.06,6.88s.08-.02.11,0l21.79,12.58c.1.06.06.21-.06.21H-21.79c-.11,0-.16-.15-.06-.21Z"/>
  </g>
</svg>
