<?xml version="1.0" encoding="UTF-8"?>
<svg version="1.1" xmlns="http://www.w3.org/2000/svg" width="1200" height="1200">
<path d="M0 0 C396 0 792 0 1200 0 C1200 396 1200 792 1200 1200 C804 1200 408 1200 0 1200 C0 804 0 408 0 0 Z " fill="#151516" transform="translate(0,0)"/>
<path d="M0 0 C1.32 0 2.64 0 4 0 C4.32049316 0.57105469 4.64098633 1.14210937 4.97119141 1.73046875 C11.75962857 13.81374282 18.62688908 25.84560648 25.62768555 37.80712891 C31.83596803 48.41646789 37.97328774 59.06628503 44.10888672 69.71777344 C47.23680148 75.14659942 50.36858448 80.57319281 53.5 86 C54.75001879 88.16665583 56.00001878 90.3333225 57.25 92.5 C57.86875 93.5725 58.4875 94.645 59.125 95.75 C229.75 391.5 229.75 391.5 231.62524414 394.75048828 C232.87435518 396.91557071 234.12354129 399.08060982 235.37280273 401.24560547 C238.51202309 406.68615706 241.64990563 412.12747216 244.78515625 417.5703125 C250.80747329 428.02206199 256.84669337 438.46299548 262.9375 448.875 C268.35958699 458.14563931 273.70324012 467.45936699 279.02023315 476.79046631 C283.63484029 484.88707843 288.29084886 492.95788801 293 501 C298.05630923 509.63497557 303.04607122 518.30606319 308 527 C313.53985933 536.72124506 319.13374932 546.40894868 324.78344727 556.06689453 C330.9273965 566.57328259 337.00319756 577.1186387 343.078125 587.66503906 C345.71158567 592.23478916 348.34892773 596.8022931 350.98657227 601.36962891 C352.87753562 604.64609976 354.76502629 607.92455313 356.65234375 611.203125 C358.66875834 614.70331636 360.69834849 618.19453728 362.75390625 621.671875 C363.14263916 622.33477539 363.53137207 622.99767578 363.93188477 623.68066406 C364.90747608 625.34240268 365.8908361 626.9995741 366.875 628.65625 C367.24625 629.4296875 367.6175 630.203125 368 631 C367.67 631.66 367.34 632.32 367 633 C363.0285883 632.40482565 360.12521442 631.16709342 356.640625 629.19140625 C355.61654541 628.61463135 354.59246582 628.03785645 353.53735352 627.44360352 C352.45252686 626.82283936 351.3677002 626.2020752 350.25 625.5625 C349.12327881 624.9243335 347.99655762 624.28616699 346.83569336 623.62866211 C339.35796409 619.38154264 331.92785422 615.05830489 324.53125 610.671875 C318.90132145 607.33998092 313.2308083 604.07852327 307.5625 600.8125 C305.90166382 599.85549194 305.90166382 599.85549194 304.20727539 598.87915039 C301.93662932 597.57110523 299.66587642 596.26324552 297.39501953 594.95556641 C291.9283002 591.80667946 286.46425113 588.65316736 281 585.5 C278.83334689 584.2499765 276.66668021 582.99997653 274.5 581.75 C261.5 574.25 248.5 566.75 235.5 559.25 C234.42733887 558.63116943 233.35467773 558.01233887 232.24951172 557.37475586 C230.08442929 556.12564482 227.91939018 554.87645871 225.75439453 553.62719727 C220.31384294 550.48797691 214.87252784 547.35009437 209.4296875 544.21484375 C198.97793801 538.19252671 188.53700452 532.15330663 178.125 526.0625 C169.44737759 520.98724877 160.73394432 515.97741233 152 511 C142.27884383 505.4599827 132.59105342 499.86625191 122.93310547 494.21655273 C112.40915375 488.06233258 101.84619863 481.97630004 91.28222656 475.89111328 C85.85340058 472.76319852 80.42680719 469.63141552 75 466.5 C72.83334417 465.24998121 70.6666775 463.99998122 68.5 462.75 C64.16666667 460.25 59.83333333 457.75 55.5 455.25 C54.42621094 454.6305249 53.35242188 454.0110498 52.24609375 453.37280273 C50.0923828 452.13023981 47.93873633 450.88756511 45.78515625 449.64477539 C40.76315738 446.74685377 35.74057193 443.84996651 30.71557617 440.95724487 C28.94954478 439.94052802 27.18372569 438.92344342 25.41796875 437.90625 C23.21265845 436.63599127 21.00695784 435.36640982 18.80078125 434.09765625 C17.79402344 433.51757812 16.78726563 432.9375 15.75 432.33984375 C14.87859375 431.83831787 14.0071875 431.33679199 13.109375 430.82006836 C12.08328125 430.2194458 11.0571875 429.61882324 10 429 C9.19187194 428.70289749 8.38374387 428.40579498 7.55112708 428.09968936 C4.41183058 426.73045535 2.37714076 425.48543336 0 423 C-1.54023656 417.43996968 -1.30808098 411.95191924 -1.20254517 406.21975708 C-1.20690606 404.46977235 -1.21566216 402.71979396 -1.22843683 400.96985042 C-1.25081686 396.15970533 -1.21077911 391.35178332 -1.16065621 386.54192162 C-1.11750825 381.35588508 -1.1320826 376.16997593 -1.13967896 370.98381042 C-1.14492493 361.99815235 -1.11352613 353.01321985 -1.05730057 344.02774429 C-0.97606133 331.0363537 -0.94998947 318.04531429 -0.93742065 305.05369721 C-0.91552929 283.9763544 -0.8489665 262.89939839 -0.75439453 241.82226562 C-0.66261723 221.34669939 -0.59182677 200.87123818 -0.54931641 180.39550781 C-0.54668917 179.13358502 -0.54406194 177.87166224 -0.54135509 176.57149936 C-0.5283048 170.24086169 -0.5156677 163.91022327 -0.50323606 157.57958436 C-0.39955309 105.05278889 -0.22340798 52.5264133 0 0 Z " fill="#D7D4BF" transform="translate(611,152)"/>
<path d="M0 0 C1.32 0 2.64 0 4 0 C4.54950535 53.64873634 4.9723159 107.29718802 5.22556791 160.94818572 C5.25558435 167.28414664 5.28664813 173.62010203 5.31835938 179.95605469 C5.32465483 181.21741239 5.33095028 182.47877009 5.3374365 183.77835076 C5.44182955 204.19427911 5.63103306 224.60858322 5.85166711 245.02354844 C6.07622113 265.97620457 6.20943367 286.92801101 6.25812387 307.88182104 C6.29103487 320.8093957 6.39489709 333.73237993 6.58999521 346.65854095 C6.71701113 355.52646943 6.7551735 364.39203066 6.72403306 373.2608024 C6.70867486 378.37745517 6.73192387 383.48610228 6.8609314 388.60132408 C7.57816541 418.48375966 7.57816541 418.48375966 1.63667488 425.98290968 C-4.01945131 430.78106073 -10.20566056 433.59690559 -17.17726612 435.98492408 C-20.99353006 437.35728074 -24.18057106 439.24615443 -27.625 441.375 C-29.74950978 442.58419505 -31.87450004 443.79254633 -34 445 C-43.72293922 450.53684936 -53.40898902 456.13377292 -63.06689453 461.78344727 C-73.58347855 467.93335892 -84.13914401 474.01491822 -94.69580078 480.09570312 C-98.02614252 482.01506662 -101.35509148 483.93682353 -104.68359375 485.859375 C-114.65143316 491.61613159 -124.6239207 497.36365676 -134.625 503.0625 C-143.01561414 507.84545471 -151.36289302 512.70004441 -159.70092773 517.57397461 C-174.95947977 526.4891523 -190.27151447 535.31189226 -205.625 544.0625 C-214.01556638 548.8455398 -222.36289192 553.70004376 -230.70092773 558.57397461 C-245.95947977 567.4891523 -261.27151447 576.31189226 -276.625 585.0625 C-285.01556638 589.8455398 -293.36289192 594.70004376 -301.70092773 599.57397461 C-312.3962189 605.82295688 -323.12402632 612.01469594 -333.86230469 618.18945312 C-336.95826065 619.97591511 -340.04629471 621.77541535 -343.1328125 623.578125 C-345.02600258 624.67715067 -346.91922978 625.77611239 -348.8125 626.875 C-349.67190186 627.38111816 -350.53130371 627.88723633 -351.41674805 628.40869141 C-352.2137915 628.86937012 -353.01083496 629.33004883 -353.83203125 629.8046875 C-354.52014893 630.20671387 -355.2082666 630.60874023 -355.91723633 631.02294922 C-358.25834895 632.12119476 -360.45516248 632.58774353 -363 633 C-363.33 632.34 -363.66 631.68 -364 631 C-363.14233398 629.04248047 -363.14233398 629.04248047 -361.74609375 626.6171875 C-360.96999756 625.25630005 -360.96999756 625.25630005 -360.17822266 623.86791992 C-359.60378418 622.88025635 -359.0293457 621.89259277 -358.4375 620.875 C-357.84759277 619.84673096 -357.25768555 618.81846191 -356.64990234 617.7590332 C-354.77626411 614.50032757 -352.89010324 611.2491798 -351 608 C-350.42169434 607.00436035 -349.84338867 606.0087207 -349.24755859 604.98291016 C-346.37238631 600.0372185 -343.48756484 595.09724906 -340.59765625 590.16015625 C-334.98321325 580.56057762 -329.4419968 570.91864049 -323.89111328 561.28222656 C-320.76319852 555.85340058 -317.63141552 550.42680719 -314.5 545 C-313.24998121 542.83334417 -311.99998122 540.6666775 -310.75 538.5 C-248.875 431.25 -187 324 -123.25 213.5 C-122.63116943 212.42733887 -122.01233887 211.35467773 -121.37475586 210.24951172 C-120.12564482 208.08442929 -118.87645871 205.91939018 -117.62719727 203.75439453 C-114.48797691 198.31384294 -111.35009437 192.87252784 -108.21484375 187.4296875 C-102.19252671 176.97793801 -96.15330663 166.53700452 -90.0625 156.125 C-84.64041301 146.85436069 -79.29675988 137.54063301 -73.97976685 128.20953369 C-68.80621213 119.13221364 -63.56857846 110.09428467 -58.2890625 101.078125 C-53.80833735 93.41426026 -49.39505776 85.71314165 -45 78 C-39.46517957 68.28759711 -33.87660026 58.60857219 -28.23193359 48.95947266 C-18.72205303 32.69749555 -9.31766543 16.37289453 0 0 Z " fill="#D7D4BF" transform="translate(585,152)"/>
<path d="M0 0 C2.61012067 1.27854669 4.93412905 2.5796348 7.375 4.125 C8.89387921 5.05185063 10.41345058 5.97756763 11.93359375 6.90234375 C12.74940918 7.40362793 13.56522461 7.90491211 14.40576172 8.42138672 C19.04372991 11.24362484 23.74366007 13.9595741 28.4375 16.6875 C29.95754639 17.57356934 29.95754639 17.57356934 31.50830078 18.47753906 C48.70135876 28.49765433 65.95471251 38.41214511 83.23706055 48.27722168 C95.36333504 55.19976653 107.45919369 62.17243847 119.51171875 69.22265625 C130.41471149 75.59888287 141.34109862 81.92990237 152.3125 88.1875 C152.90944672 88.5279837 153.50639343 88.86846741 154.12142944 89.2192688 C154.71452911 89.55755707 155.30762878 89.89584534 155.91870117 90.24438477 C167.48572041 96.8423562 179.01734014 103.49893055 190.51171875 110.22265625 C201.41471149 116.59888287 212.34109862 122.92990237 223.3125 129.1875 C223.90944672 129.5279837 224.50639343 129.86846741 225.12142944 130.2192688 C225.71452911 130.55755707 226.30762878 130.89584534 226.91870117 131.24438477 C238.48572041 137.8423562 250.01734014 144.49893055 261.51171875 151.22265625 C272.41471149 157.59888287 283.34109862 163.92990237 294.3125 170.1875 C294.90944672 170.5279837 295.50639343 170.86846741 296.12142944 171.2192688 C296.71452911 171.55755707 297.30762878 171.89584534 297.91870117 172.24438477 C307.63698128 177.78781244 317.32999846 183.37282396 327 189 C327.98049316 189.57024902 328.96098633 190.14049805 329.97119141 190.72802734 C333.16893667 192.58841738 336.36588394 194.45017045 339.5625 196.3125 C340.55024414 196.88758301 341.53798828 197.46266602 342.55566406 198.05517578 C344.45130216 199.1608043 346.34445687 200.27070386 348.23486328 201.38525391 C350.11182005 202.48133302 352.00146169 203.55591824 353.90185547 204.61083984 C354.8095166 205.12469238 355.71717773 205.63854492 356.65234375 206.16796875 C357.46566162 206.61809326 358.27897949 207.06821777 359.11694336 207.53198242 C361 209 361 209 362 213 C121.1 213 -119.8 213 -368 213 C-367 209 -367 209 -364.09765625 206.94921875 C-362.7599125 206.1824193 -361.414055 205.42968517 -360.0625 204.6875 C-358.49999553 203.79948703 -356.93749584 202.91146566 -355.375 202.0234375 C-354.51519531 201.54100586 -353.65539062 201.05857422 -352.76953125 200.56152344 C-348.77058405 198.30682789 -344.80072269 196.00268421 -340.82788086 193.70239258 C-337.49325855 191.77242538 -334.15532478 189.84830524 -330.81640625 187.92578125 C-324.20884965 184.12080182 -317.60412307 180.3109349 -311 176.5 C-308.83334689 175.2499765 -306.66668021 173.99997653 -304.5 172.75 C-302.89125 171.821875 -302.89125 171.821875 -301.25 170.875 C-265.5 150.25 -265.5 150.25 -262.24951172 148.37475586 C-260.08442929 147.12564482 -257.91939018 145.87645871 -255.75439453 144.62719727 C-250.31384294 141.48797691 -244.87252784 138.35009437 -239.4296875 135.21484375 C-228.97793801 129.19252671 -218.53700452 123.15330663 -208.125 117.0625 C-198.85500223 111.64078822 -189.54168248 106.29795085 -180.21154785 100.98077393 C-171.0871716 95.77954871 -161.99867226 90.51972122 -152.93310547 85.21655273 C-142.40915375 79.06233258 -131.84619863 72.97630004 -121.28222656 66.89111328 C-115.85340058 63.76319852 -110.42680719 60.63141552 -105 57.5 C-102.83334417 56.24998121 -100.6666775 54.99998122 -98.5 53.75 C-97.4275 53.13125 -96.355 52.5125 -95.25 51.875 C-59.5 31.25 -59.5 31.25 -56.24560547 29.37255859 C-54.0934787 28.13088473 -51.94145927 26.88902478 -49.78955078 25.64697266 C-44.74969023 22.73833177 -39.70882508 19.83148102 -34.66400146 16.93145752 C-32.88250422 15.90724335 -31.10135678 14.88242349 -29.3203125 13.85742188 C-27.08923375 12.57366625 -24.85750427 11.29104061 -22.625 10.00976562 C-21.61179687 9.42646484 -20.59859375 8.84316406 -19.5546875 8.2421875 C-18.59788086 7.69272461 -17.64107422 7.14326172 -16.65527344 6.57714844 C-14.25255122 5.15000744 -11.94879446 3.63220285 -9.6328125 2.0703125 C-6.2466379 -0.03799467 -4.04618305 -0.77934396 0 0 Z " fill="#D7D4BF" transform="translate(603,595)"/>
<path d="M0 0 C22.34951987 -0.16043524 22.34951987 -0.16043524 31.90820312 -0.1953125 C38.41948557 -0.2191835 44.93054207 -0.24736177 51.44165039 -0.30175781 C56.69363945 -0.34535798 61.94538606 -0.36916715 67.19754219 -0.37950897 C69.19693376 -0.38687492 71.19631271 -0.4012588 73.19560051 -0.42292023 C76.00560607 -0.4521426 78.81462175 -0.45594816 81.62475586 -0.45410156 C82.85259544 -0.47567322 82.85259544 -0.47567322 84.10523987 -0.49768066 C90.71828179 -0.45094539 96.85014714 1.15580132 101.85742092 5.67718124 C107.27177316 11.51159995 109.51315804 17.58997102 109.30859375 25.5078125 C108.99819196 28.0146016 108.39163482 29.98212463 107.4375 32.3125 C105.95865398 36.10606154 105.63119467 37.28467126 107 41 C107.7734375 42.299375 107.7734375 42.299375 108.5625 43.625 C110.8661897 49.03366277 110.95126132 54.56588681 109.37890625 60.2421875 C106.79603675 66.14260939 102.09418362 71.27666171 96.11139774 73.79495716 C90.53736079 75.77851281 85.69970461 76.42001917 79.80834961 76.34057617 C78.93896759 76.34101425 78.06958557 76.34145233 77.17385864 76.34190369 C74.33311594 76.33983284 71.49298187 76.31658323 68.65234375 76.29296875 C66.66980817 76.28736672 64.68726841 76.28309949 62.70472717 76.28010559 C57.51136615 76.26870463 52.31826072 76.23927866 47.125 76.20599365 C40.88073253 76.16976485 34.63637914 76.156109 28.39203644 76.13863373 C18.92784706 76.10963825 9.46421743 76.05211786 0 76 C0 50.92 0 25.84 0 0 Z " fill="#D6D3BE" transform="translate(425,835)"/>
<path d="M0 0 C21.89049683 -0.16043524 21.89049683 -0.16043524 31.24609375 -0.1953125 C37.62139255 -0.21919224 43.9964608 -0.24739413 50.37158203 -0.30175781 C55.51334149 -0.34532794 60.65485358 -0.36916085 65.79678345 -0.37950897 C67.75513602 -0.38688029 69.71347559 -0.40127477 71.67172241 -0.42292023 C74.4220672 -0.45210268 77.17139945 -0.45594982 79.921875 -0.45410156 C81.12705528 -0.47567322 81.12705528 -0.47567322 82.35658264 -0.49768066 C88.84327234 -0.45074014 93.96183417 1.4479407 98.953125 5.640625 C104.01037571 11.91649034 107.68661611 17.53181407 107.34375 25.83203125 C106.99301047 28.04408169 106.38476386 29.72829335 105.4375 31.75 C103.87816957 35.27544271 103.74974601 36.44158479 105 40 C105.34272949 40.55526367 105.68545898 41.11052734 106.03857422 41.68261719 C107.40327865 44.97204696 107.22350377 47.83852494 107.1953125 51.390625 C107.1924826 52.09523865 107.18965271 52.79985229 107.18673706 53.52581787 C107.17557801 55.7673876 107.15048193 58.00855186 107.125 60.25 C107.11496464 61.77343171 107.10583976 63.29686971 107.09765625 64.8203125 C107.07735754 68.54715536 107.03820258 72.27312596 107 76 C100.73 76 94.46 76 88 76 C88 66.76 88 57.52 88 48 C65.56 48 43.12 48 20 48 C20 57.24 20 66.48 20 76 C13.4 76 6.8 76 0 76 C0 50.92 0 25.84 0 0 Z " fill="#D6D3BF" transform="translate(565,835)"/>
<path d="M0 0 C10.15855243 5.81327567 14.04989815 16.77778632 18.33984375 27.03515625 C18.90397363 28.35979035 19.46907248 29.68401222 20.03515625 31.0078125 C21.61640512 34.71655986 23.16866763 38.43664806 24.71484375 42.16015625 C25.13991211 43.17239258 25.56498047 44.18462891 26.00292969 45.22753906 C26.55255371 46.55930176 26.55255371 46.55930176 27.11328125 47.91796875 C27.42700684 48.67480957 27.74073242 49.43165039 28.06396484 50.21142578 C28.71484375 52.16015625 28.71484375 52.16015625 28.71484375 55.16015625 C29.37484375 55.16015625 30.03484375 55.16015625 30.71484375 55.16015625 C30.80096924 54.52513184 30.88709473 53.89010742 30.97583008 53.23583984 C32.01254176 48.92117393 33.77055911 45.01030504 35.5390625 40.94921875 C35.92294632 40.06285736 36.30683014 39.17649597 36.7023468 38.26327515 C37.51587762 36.39112587 38.33220185 34.52018831 39.15112305 32.65039062 C40.39264748 29.80736023 41.61551521 26.95677459 42.83789062 24.10546875 C43.63297536 22.28205491 44.42916421 20.45912204 45.2265625 18.63671875 C45.58618576 17.79170807 45.94580902 16.94669739 46.31632996 16.07608032 C49.17696199 9.62662453 52.62640733 4.38670344 58.40234375 0.22265625 C63.92686575 -1.54936024 69.49520332 -2.01457742 75.02734375 0.00390625 C80.54412278 3.09664601 84.36689103 7.85505767 86.26463318 13.91607666 C86.8160614 16.66467674 86.83436159 19.22580618 86.82836914 22.03027344 C86.82825584 23.8016568 86.82825584 23.8016568 86.82814026 25.60882568 C86.82297897 26.87873352 86.81781769 28.14864136 86.8125 29.45703125 C86.81108505 30.76093811 86.8096701 32.06484497 86.80821228 33.40826416 C86.80440242 36.8671868 86.79458526 40.32606716 86.7835083 43.78497314 C86.77326121 47.31758044 86.7687076 50.85019461 86.76367188 54.3828125 C86.75296157 61.30861283 86.73537721 68.23437815 86.71484375 75.16015625 C80.44484375 75.16015625 74.17484375 75.16015625 67.71484375 75.16015625 C67.38484375 58.00015625 67.05484375 40.84015625 66.71484375 23.16015625 C61.01283631 35.25902029 61.01283631 35.25902029 55.31762695 47.36108398 C54.59220207 48.89708718 53.86654935 50.4329828 53.140625 51.96875 C52.77755249 52.74319458 52.41447998 53.51763916 52.04040527 54.31555176 C44.04493703 71.19899332 44.04493703 71.19899332 36.46484375 75.41015625 C31.51319404 76.76060617 27.19020229 77.15927131 22.34375 75.203125 C11.63227466 68.93519592 7.53032399 54.77592804 2.48120117 43.96875 C1.39051349 41.63484127 0.29427936 39.30359726 -0.80273438 36.97265625 C-1.50162312 35.48322351 -2.20020246 33.99364555 -2.8984375 32.50390625 C-3.22443436 31.81018921 -3.55043121 31.11647217 -3.88630676 30.4017334 C-5.15740792 27.6770609 -6.33338852 25.01545945 -7.28515625 22.16015625 C-7.61515625 39.65015625 -7.94515625 57.14015625 -8.28515625 75.16015625 C-14.22515625 75.16015625 -20.16515625 75.16015625 -26.28515625 75.16015625 C-26.37579622 67.21451668 -26.44906604 59.26928411 -26.49240494 51.32326508 C-26.51321335 47.6329567 -26.54140544 43.94302267 -26.58691406 40.25292969 C-26.63061568 36.68673564 -26.65434401 33.12089994 -26.66466522 29.55445862 C-26.67557119 27.54265513 -26.70675816 25.53099429 -26.73834229 23.51940918 C-26.74011447 16.24188336 -26.3116675 11.30229205 -22.28515625 5.16015625 C-15.97277566 -0.83660531 -8.44537481 -3.1038557 0 0 Z " fill="#D6D3BE" transform="translate(867.28515625,835.83984375)"/>
<path d="M0 0 C6.6 0 13.2 0 20 0 C20 18.48 20 36.96 20 56 C42.77 56 65.54 56 89 56 C89 37.52 89 19.04 89 0 C95.6 0 102.2 0 109 0 C109.09059204 7.70206549 109.16388313 15.40393077 109.20724869 23.10640049 C109.22806871 26.68352209 109.25628224 30.26025834 109.30175781 33.8371582 C109.34541779 37.29312329 109.36917906 40.74871917 109.37950897 44.20493889 C109.39042916 46.15640832 109.42162308 48.1077305 109.45318604 50.05897522 C109.45521046 58.10452593 108.78589773 62.81649657 103.2890625 68.890625 C102.73992187 69.33921875 102.19078125 69.7878125 101.625 70.25 C101.08101562 70.70890625 100.53703125 71.1678125 99.9765625 71.640625 C94.85832236 75.16067949 90.87104959 76.37893029 84.65283203 76.41992188 C83.94304199 76.42839142 83.23325195 76.43686096 82.50195312 76.44558716 C80.17038742 76.46886407 77.83948531 76.46998154 75.5078125 76.46875 C73.87645203 76.47585767 72.24509404 76.48355755 70.61373901 76.49182129 C67.19929044 76.50524502 63.78507299 76.50684461 60.37060547 76.50097656 C56.01042131 76.49508497 51.65135238 76.52565839 47.29138374 76.56609344 C43.92314758 76.592035 40.55517759 76.59484201 37.18685532 76.59120178 C35.58019078 76.59288727 33.97351319 76.60247457 32.36694717 76.62034607 C16.25974972 76.77980527 16.25974972 76.77980527 10 71 C9.27167969 70.33097656 8.54335938 69.66195312 7.79296875 68.97265625 C7.26316406 68.34230469 6.73335937 67.71195313 6.1875 67.0625 C5.64480469 66.43472656 5.10210938 65.80695313 4.54296875 65.16015625 C-0.47162072 58.13973099 -0.39997845 52.34802712 -0.29296875 43.9453125 C-0.28872391 42.68862762 -0.28447906 41.43194275 -0.28010559 40.13717651 C-0.26619122 36.81284265 -0.23928624 33.4891377 -0.20599365 30.16497803 C-0.17518246 26.76629034 -0.16157678 23.36753741 -0.14648438 19.96875 C-0.1134501 13.31230511 -0.06168456 6.65623856 0 0 Z " fill="#D6D3BE" transform="translate(701,835)"/>
<path d="M0 0 C7.26 0 14.52 0 22 0 C28.47067767 11.56878736 34.82451085 23.19240641 41.08837891 34.87451172 C41.65347168 35.92783691 42.21856445 36.98116211 42.80078125 38.06640625 C43.34041504 39.0733252 43.88004883 40.08024414 44.43603516 41.11767578 C46.28840195 44.53151318 48.20067873 47.90885973 50.14135742 51.27319336 C51 53 51 53 51 55 C51.66 55 52.32 55 53 55 C53.24105469 54.34773437 53.48210937 53.69546875 53.73046875 53.0234375 C55.37683136 49.10256163 57.3259287 45.38275481 59.3125 41.625 C59.95759521 40.40043091 59.95759521 40.40043091 60.61572266 39.15112305 C64.77161727 31.32225259 69.12766344 23.60951393 73.5324707 15.91845703 C74.05542725 15.00306152 74.57838379 14.08766602 75.1171875 13.14453125 C75.57722168 12.34378174 76.03725586 11.54303223 76.51123047 10.71801758 C78.43949515 7.19762225 80.20492964 3.59014072 82 0 C89.26 0 96.52 0 104 0 C102.59054816 4.22835552 101.29735594 7.62007088 99.27734375 11.4921875 C98.74318848 12.51916748 98.2090332 13.54614746 97.65869141 14.60424805 C97.09069824 15.68359619 96.52270508 16.76294434 95.9375 17.875 C95.35403809 18.99108643 94.77057617 20.10717285 94.16943359 21.25708008 C90.57517461 28.10100402 86.88599052 34.87823256 83.03735352 41.58203125 C80.644507 45.77187054 78.4766655 50.03292967 76.375 54.375 C67.35686136 72.55639675 67.35686136 72.55639675 58 76 C52.08911215 77.05773783 46.13675467 76.13741902 41 73 C30.1316574 64.13778149 24.26863119 48.75029457 18.19067383 36.41650391 C15.11034228 30.16952679 11.90725222 23.98860531 8.6875 17.8125 C8.1713916 16.81968018 7.6552832 15.82686035 7.12353516 14.80395508 C6.63288574 13.86447021 6.14223633 12.92498535 5.63671875 11.95703125 C5.20061279 11.12147705 4.76450684 10.28592285 4.31518555 9.42504883 C3.37516979 7.69176935 2.37430496 5.99094173 1.33520508 4.31518555 C0 2 0 2 0 0 Z " fill="#D6D3BE" transform="translate(239,835)"/>
<path d="M0 0 C6.93 0 13.86 0 21 0 C21 25.08 21 50.16 21 76 C14.07 76 7.14 76 0 76 C0 50.92 0 25.84 0 0 Z " fill="#D8D5C0" transform="translate(373,835)"/>
<path d="M0 0 C22.44 0 44.88 0 68 0 C68 2.64 68 5.28 68 8 C45.56 8 23.12 8 0 8 C0 5.36 0 2.72 0 0 Z " fill="#151516" transform="translate(446,883)"/>
<path d="M0 0 C22.44 0 44.88 0 68 0 C68 2.64 68 5.28 68 8 C45.56 8 23.12 8 0 8 C0 5.36 0 2.72 0 0 Z " fill="#161617" transform="translate(445,855)"/>
<path d="M0 0 C21.78 0 43.56 0 66 0 C66 2.64 66 5.28 66 8 C44.22 8 22.44 8 0 8 C0 5.36 0 2.72 0 0 Z " fill="#151516" transform="translate(586,855)"/>
</svg>
